<?xml version="1.0" encoding="UTF-8"?>
<svg width="24px" height="24px" viewBox="0 0 24 24" version="1.1" xmlns="http://www.w3.org/2000/svg" xmlns:xlink="http://www.w3.org/1999/xlink">
    <!-- Generator: Sketch 56.1 (81669) - https://sketch.com -->
    <title>lock</title>
    <desc>Created with Sketch.</desc>
    <defs>
        <linearGradient x1="0%" y1="65.173172%" x2="112.209926%" y2="65.173172%" id="linearGradient-1">
            <stop stop-color="#E1B755" offset="0%"></stop>
            <stop stop-color="#B27C34" offset="18.5934687%"></stop>
            <stop stop-color="#E1B755" offset="40.7238575%"></stop>
            <stop stop-color="#F7F0B6" offset="50.3685607%"></stop>
            <stop stop-color="#E1B755" offset="60.2809877%"></stop>
            <stop stop-color="#AB732F" offset="88.2324938%"></stop>
            <stop stop-color="#E1B755" offset="100%"></stop>
            <stop stop-color="#E1B755" offset="100%"></stop>
        </linearGradient>
    </defs>
    <g id="Symbols" stroke="none" stroke-width="1" fill="none" fill-rule="evenodd">
        <g id="icons-/-userBlue-Copy" fill="url(#linearGradient-1)" fill-rule="nonzero">
            <g id="locked-padlock-1" transform="translate(3.000000, 2.000000)">
                <path d="M15.0174907,6.66044776 L13.9470616,6.66044776 L13.9470616,4.75746269 C13.9470616,2.09328358 11.5921175,0 8.59491604,0 C5.59771455,0 3.24277052,2.09328358 3.24277052,4.75746269 L3.24277052,6.66044776 L2.17234142,6.66044776 C0.994869403,6.66044776 0.031483209,7.51679104 0.031483209,8.56343284 L0.031483209,18.0783582 C0.031483209,19.125 0.994869403,19.9813433 2.17234142,19.9813433 L15.0174907,19.9813433 C16.1949627,19.9813433 17.1583489,19.125 17.1583489,18.0783582 L17.1583489,8.56343284 C17.1583489,7.51679104 16.1949627,6.66044776 15.0174907,6.66044776 Z M8.59491604,15.2238806 C7.41744403,15.2238806 6.45405784,14.3675373 6.45405784,13.3208955 C6.45405784,12.2742537 7.41744403,11.4179104 8.59491604,11.4179104 C9.77238806,11.4179104 10.7357743,12.2742537 10.7357743,13.3208955 C10.7357743,14.3675373 9.77238806,15.2238806 8.59491604,15.2238806 Z M11.9132463,6.66044776 L5.27658582,6.66044776 L5.27658582,4.75746269 C5.27658582,3.13992537 6.77518657,1.80783582 8.59491604,1.80783582 C10.4146455,1.80783582 11.9132463,3.13992537 11.9132463,4.75746269 L11.9132463,6.66044776 Z" id="Shape"></path>
            </g>
        </g>
    </g>
</svg>