<?xml version="1.0" encoding="UTF-8"?>
<svg width="120px" height="146px" viewBox="0 0 120 146" version="1.1" xmlns="http://www.w3.org/2000/svg" xmlns:xlink="http://www.w3.org/1999/xlink">
    <!-- Generator: Sketch 56.1 (81669) - https://sketch.com -->
    <title>logo@1,5x</title>
    <desc>Created with Sketch.</desc>
    <defs>
        <linearGradient x1="0%" y1="65.173172%" x2="112.209926%" y2="65.173172%" id="linearGradient-1">
            <stop stop-color="#E1B755" offset="0%"></stop>
            <stop stop-color="#B27C34" offset="18.5934687%"></stop>
            <stop stop-color="#E1B755" offset="40.7238575%"></stop>
            <stop stop-color="#F7F0B6" offset="50.3685607%"></stop>
            <stop stop-color="#E1B755" offset="60.2809877%"></stop>
            <stop stop-color="#AB732F" offset="88.2324938%"></stop>
            <stop stop-color="#E1B755" offset="100%"></stop>
            <stop stop-color="#E1B755" offset="100%"></stop>
        </linearGradient>
        <path d="M25.109375,134.539062 C25.109375,135.914069 25.6953066,136.601562 26.8671875,136.601562 C27.9453179,136.601562 28.7734346,136.257816 29.3515625,135.570312 C29.9296904,134.882809 30.5,133.812507 31.0625,132.359375 L33.078125,132.359375 C31.2187407,137.750027 28.7031409,140.679685 25.53125,141.148438 C25.0312475,141.210938 24.4140662,141.242188 23.6796875,141.242188 C22.9453088,141.242188 22.2187536,141.085939 21.5,140.773438 C19.49999,139.929683 18.5,138.281262 18.5,135.828125 C18.5,134.515618 18.8593714,132.421889 19.578125,129.546875 C20.2968786,126.671861 20.65625,124.687505 20.65625,123.59375 C20.65625,121.953117 20.0781308,121.132812 18.921875,121.132812 C17.7656192,121.132812 16.7343795,122.046866 15.828125,123.875 C15.5624987,124.390628 15.3437509,124.953122 15.171875,125.5625 L11.9140625,140.960938 L5,140.960938 L10.0859375,116.960938 L17,116.960938 L16.484375,119.445312 C18.0468828,117.664054 19.9140516,116.773438 22.0859375,116.773438 C23.6171952,116.773438 24.8906199,117.195308 25.90625,118.039062 C26.9218801,118.882817 27.4296875,120.132804 27.4296875,121.789062 C27.4296875,123.445321 27.1640652,125.320302 26.6328125,127.414062 L25.484375,132.054688 C25.2343738,133.070318 25.109375,133.898434 25.109375,134.539062 Z M58.0390625,122.726562 C56.1015528,124.757823 53.2656437,126.085934 49.53125,126.710938 C49.1562481,131.085959 47.8984482,134.585924 45.7578125,137.210938 C43.6171768,139.835951 41.0547024,141.148438 38.0703125,141.148438 C34.3827941,141.148438 32.0078178,139.789076 30.9453125,137.070312 C30.5703106,136.117183 30.3828125,135.062506 30.3828125,133.90625 C30.3828125,132.749994 30.4804678,131.574225 30.6757812,130.378906 C30.8710947,129.183588 31.1796854,127.953131 31.6015625,126.6875 C32.5546923,123.828111 33.9374909,121.507821 35.75,119.726562 C37.9062608,117.601552 40.4999848,116.539062 43.53125,116.539062 C47.6406455,116.539062 49.6953125,119.093724 49.6953125,124.203125 L49.6953125,124.25 C49.8515633,124.28125 50.1171856,124.296875 50.4921875,124.296875 C51.3515668,124.296875 52.4570245,124.02344 53.8085938,123.476562 C55.160163,122.929685 56.4296816,122.242192 57.6171875,121.414062 L58.0390625,122.726562 Z M45.546875,126.851562 C44.6874957,126.632811 44.2578125,125.921881 44.2578125,124.71875 C44.2578125,123.515619 44.7578075,122.687502 45.7578125,122.234375 C45.6953122,121.218745 45.5351575,120.500002 45.2773438,120.078125 C45.01953,119.656248 44.5156287,119.445312 43.765625,119.445312 C42.2968677,119.445312 40.8906317,121.06639 39.546875,124.308594 C38.2031183,127.550797 37.53125,130.429675 37.53125,132.945312 C37.53125,134.492195 37.6718736,135.472654 37.953125,135.886719 C38.2343764,136.300783 38.53125,136.562499 38.84375,136.671875 C39.1562516,136.781251 39.5781223,136.835938 40.109375,136.835938 C41.2031305,136.835938 42.2890571,135.87501 43.3671875,133.953125 C44.4453179,132.03124 45.1718731,129.664077 45.546875,126.851562 Z M58.71875,134.492188 C58.71875,135.898445 59.1953077,136.601562 60.1484375,136.601562 C61.8359459,136.601562 63.1171831,135.187514 63.9921875,132.359375 L67.25,116.960938 L74.1640625,116.960938 L70.71875,133.273438 C70.5468741,134.039066 70.4609375,134.617186 70.4609375,135.007812 C70.4609375,136.070318 71.007807,136.601562 72.1015625,136.601562 C73.5859449,136.601562 74.9999933,135.601572 76.34375,133.601562 C78.1562591,130.929674 79.414059,127.585958 80.1171875,123.570312 C80.3046884,122.445307 80.3984375,121.445317 80.3984375,120.570312 C80.3203121,120.742188 80.0937519,120.859375 79.71875,120.921875 L79.2265625,121.015625 C79.0859368,121.03125 78.9687505,121.039062 78.875,121.039062 C78.3124972,121.039062 77.882814,120.769534 77.5859375,120.230469 C77.289061,119.691404 77.140625,119.097659 77.140625,118.449219 C77.140625,117.800778 77.3789039,117.230471 77.8554688,116.738281 C78.3320336,116.246091 78.9765584,116 79.7890625,116 C81.0546938,116 81.9296851,116.40234 82.4140625,117.207031 C82.8984399,118.011723 83.140625,119.027338 83.140625,120.253906 C83.140625,121.480475 83.0312511,122.863274 82.8125,124.402344 C82.5937489,125.941414 82.2500023,127.49218 81.78125,129.054688 C80.7343698,132.57033 79.2656345,135.382802 77.375,137.492188 C75.1249887,139.9922 72.425797,141.242188 69.2773438,141.242188 C66.1288905,141.242188 64.2734403,139.898451 63.7109375,137.210938 C61.9296786,139.898451 59.6562638,141.242188 56.890625,141.242188 C55.4531178,141.242188 54.23438,140.789067 53.234375,139.882812 C52.2499951,138.976558 51.7578125,137.515635 51.7578125,135.5 C51.7578125,134.593745 51.8828113,133.546881 52.1328125,132.359375 L55.390625,116.960938 L62.3046875,116.960938 L58.859375,133.273438 C58.7656245,133.67969 58.71875,134.085935 58.71875,134.492188 Z M90.453125,134.492188 C90.453125,135.898445 90.9296827,136.601562 91.8828125,136.601562 C93.5703209,136.601562 94.8515581,135.187514 95.7265625,132.359375 L98.984375,116.960938 L105.898438,116.960938 L102.453125,133.273438 C102.281249,134.039066 102.195312,134.617186 102.195312,135.007812 C102.195312,136.070318 102.742182,136.601562 103.835938,136.601562 C105.32032,136.601562 106.734368,135.601572 108.078125,133.601562 C109.890634,130.929674 111.148434,127.585958 111.851562,123.570312 C112.039063,122.445307 112.132812,121.445317 112.132812,120.570312 C112.054687,120.742188 111.828127,120.859375 111.453125,120.921875 L110.960938,121.015625 C110.820312,121.03125 110.703125,121.039062 110.609375,121.039062 C110.046872,121.039062 109.617189,120.769534 109.320312,120.230469 C109.023436,119.691404 108.875,119.097659 108.875,118.449219 C108.875,117.800778 109.113279,117.230471 109.589844,116.738281 C110.066409,116.246091 110.710933,116 111.523438,116 C112.789069,116 113.66406,116.40234 114.148438,117.207031 C114.632815,118.011723 114.875,119.027338 114.875,120.253906 C114.875,121.480475 114.765626,122.863274 114.546875,124.402344 C114.328124,125.941414 113.984377,127.49218 113.515625,129.054688 C112.468745,132.57033 111.000009,135.382802 109.109375,137.492188 C106.859364,139.9922 104.160172,141.242188 101.011719,141.242188 C97.8632655,141.242188 96.0078153,139.898451 95.4453125,137.210938 C93.6640536,139.898451 91.3906388,141.242188 88.625,141.242188 C87.1874928,141.242188 85.968755,140.789067 84.96875,139.882812 C83.9843701,138.976558 83.4921875,137.515635 83.4921875,135.5 C83.4921875,134.593745 83.6171863,133.546881 83.8671875,132.359375 L87.125,116.960938 L94.0390625,116.960938 L90.59375,133.273438 C90.4999995,133.67969 90.453125,134.085935 90.453125,134.492188 Z" id="path-2"></path>
    </defs>
    <g id="Page-1" stroke="none" stroke-width="1" fill="none" fill-rule="evenodd">
        <g id="register" transform="translate(-128.000000, -105.000000)" fill-rule="nonzero">
            <g id="Group" transform="translate(128.000000, 105.000000)">
                <g id="magicLamp">
                    <path d="M9.11702974,45 C4.11835666,41.3319415 3.30756795,37.8426446 6.68466353,34.5321092 C12.6845097,30.3484078 17.8980935,29.3867075 37.2023228,29.3867075 C50.071809,29.3867075 61.0914936,24.849967 70.2613763,15.776486 C74.5315699,10.5683263 76.6666667,5.3094977 76.6666667,0 C71.3823349,11.6455363 63.1980168,18.787234 52.1137127,21.4250933 C35.4872559,25.3818819 31.2871012,24.2167118 22.693819,24.6962052 C14.1005369,25.1756987 5.93587299,26.6812682 1.13778122,33.1316078 C-1.76790157,39.1708867 0.891847956,43.1270177 9.11702974,45 Z" id="Path" fill="#F8FAFB"></path>
                    <path d="M25.8333333,33.8062022 C27.3395401,33.8062022 46.4165541,36.4024406 57.9523991,31.2534974 C65.6429625,27.8208688 70.7699404,24.6252587 73.3333333,21.6666667 C69.8374132,28.805573 64.2540835,33.4932112 56.5833446,35.7295812 C45.0772359,39.0841363 31.6077033,37.2367417 25.8333333,33.8062022 Z" id="Path-2" fill="#F8FAFB"></path>
                    <path d="M61.0803001,86.3748 C63.9162324,87.1409078 67.0865864,86.7898553 70.5913617,85.3216425 C67.4430662,86.0328287 64.7577492,86.0328287 62.5354109,85.3216425 C54.4140395,83.6295855 46.9747862,80.5220021 40.2176501,75.9988928 C30.0819461,69.2142285 19.8536174,59.3517229 12.7571461,57.2603991 C8.02616529,55.8661832 5.06317801,54.936965 3.86818426,54.472744 C2.64912829,53.9666838 2.24470902,53.3050574 2.6549264,52.4878642 C3.27025251,51.2620744 4.45393993,50.6673458 8.2820076,50.6673458 C12.1100753,50.6673458 13.2207063,49.8546219 22.3914571,53.5575107 C31.562208,57.2603991 33.5725632,58.1968263 37.5063016,59.167856 C41.44004,60.1388857 48.6247878,59.6808367 50.7634266,58.0774481 C50.8636476,58.0023099 50.9712329,57.913368 51.0860505,57.8119437 C61.2338657,61.5772618 69.4781231,61.535025 75.818823,57.6852336 C69.7651735,59.8611667 61.9552072,59.4715098 52.3889238,56.516263 C55.1243959,53.645009 59.87065,48.3256264 65.9613291,47.2562766 C66.5263566,47.2562766 66.8088703,47.235273 66.8088703,47.1932655 L66.8088703,45.9872485 C65.4791574,45.3233294 64.5665809,43.9546213 64.5665809,42.3739114 C64.5665809,40.1423618 66.3853524,38.3333333 68.6289208,38.3333333 C70.8724892,38.3333333 72.6912607,40.1423618 72.6912607,42.3739114 C72.6912607,42.3875198 72.691193,42.4011126 72.6910582,42.4146893 C72.6975296,42.5003138 72.7007808,42.5844855 72.7007808,42.6668399 C72.7007808,43.8093224 72.1196123,44.8791995 70.9572749,45.8764717 L70.9572749,47.2562766 C71.316572,47.215228 71.5840869,47.215228 71.7598193,47.2562766 C76.759385,48.424104 80.8222046,50.7480098 83.7753524,53.8881559 C84.1345418,53.6345742 84.5735406,53.4855012 85.0475446,53.4855012 C86.2628108,53.4855012 87.2479787,54.4653915 87.2479787,55.6741476 C87.2479787,56.1055524 87.1224903,56.5078051 86.9058403,56.8467628 C89.6985944,59.6461143 91.7466934,60.419812 93.0501375,59.167856 C95.0360408,57.2603991 94.2224594,52.4778332 99.3203334,49.8355493 C104.418208,47.1932655 112.240076,46.1656162 117.884845,50.6673458 C120.32739,52.6152869 120.590353,56.1850147 119.004397,58.6635407 C116.925178,61.9129355 112.111554,63.9608807 109.323082,64.7961671 C106.214965,65.7272032 103.450308,67.0119484 101.029111,68.6504032 C102.120572,69.5140239 102.820282,70.8465028 102.820282,72.3415322 C102.820282,74.9450067 100.698381,77.05554 98.0808851,77.05554 C96.1930822,77.05554 94.5630711,75.9577146 93.800969,74.3689125 C91.861617,77.772581 89.9012313,80.1011873 87.9198115,81.3547316 C85.7988032,82.6965867 82.2402636,84.0188901 77.2441921,85.3216425 L86.8393659,93.63876 C87.1959713,94.0575919 87.3742738,94.3858407 87.3742738,94.6235072 C87.3742738,94.8611736 87.1959713,95.2305953 86.8393659,95.7317724 C84.707412,97.1609592 82.9481415,98.0656814 81.5615549,98.4459388 C71.5333757,101.196064 61.6252386,100.146741 54.081404,96.4752913 C52.5620052,95.1451178 52.4285032,93.7882712 53.6808986,92.4047523 C53.7419999,92.3372538 53.8071453,92.2674286 53.876335,92.1952766 C63.477886,95.9462766 72.1567224,96.5650804 79.9128448,94.0516886 C74.8624825,94.4244845 71.8232121,94.7570388 66.8992394,94.2139259 C62.6122436,93.7410712 58.7185731,92.6490504 55.2182275,90.9378629 C56.5634998,89.767064 58.5175242,88.2460432 61.0803001,86.3748 Z M97.3939011,66.1063522 C97.5555552,66.391117 97.9111511,66.2711374 98.1816325,66.2158014 C98.3619533,66.1789105 98.6164894,66.0366344 98.945241,65.7889725 L108.324614,59.3710008 C113.082439,55.4473345 113.436365,53.0884133 109.38639,52.2942377 C103.311428,51.1029743 100.188263,54.4190629 98.945241,56.0787603 C97.7022195,57.7384574 97.2322474,65.8215874 97.3939011,66.1063522 Z M7.69382219,53.822216 C9.93739056,53.822216 11.7561621,53.3699588 11.7561621,52.8120715 C11.7561621,52.2541841 9.93739056,51.801927 7.69382219,51.801927 C5.45025381,51.801927 3.63148228,52.2541841 3.63148228,52.8120715 C3.63148228,53.3699588 5.45025381,53.822216 7.69382219,53.822216 Z M67.6301529,45.4131565 C66.7471881,44.5199672 66.2464586,43.6049055 66.1279636,42.6679719 C66.0094688,41.7310383 66.4168237,40.5348039 67.3500281,39.0792685 C64.9666543,40.7405549 64.4589603,42.6247532 65.9273798,44.2765035 C66.1971283,44.57993 66.7647194,44.9588143 67.6301529,45.4131565 Z M27.0981925,57.8607267 C29.8182217,61.088169 32.9976463,63.0281762 36.6364656,63.6807477 C40.2752849,64.3333196 43.9407782,63.8068929 47.6329458,62.1014686 C39.8248831,63.1543213 32.9799653,61.7407409 27.0981925,57.8607267 Z M47.507405,77.05554 C45.3802406,76.3223822 46.8303205,77.1153446 51.8576446,79.434428 C59.3986305,82.9130526 68.806137,83.2040587 73.8845077,82.7845787 C78.9628784,82.3650987 90.7608834,77.5359465 91.5696607,74.2506683 C92.1088456,72.0604831 90.8183906,71.9508141 87.6982962,73.9216612 C77.7171534,81.5262615 64.3201895,82.5708877 47.507405,77.05554 Z M97.2011878,68.9676276 C94.8741366,69.7161676 92.2983677,72.9947577 97.3631621,75.2256773 C96.000162,74.1714814 95.3875344,73.0704141 95.5252786,71.9224748 C95.7318949,70.2005659 97.2011878,68.9676276 97.2011878,68.9676276 Z" id="Combined-Shape" fill="url(#linearGradient-1)"></path>
                </g>
                <g id="noww" fill="#FFFFFF">
                    <use xlink:href="#path-2"></use>
                    <use xlink:href="#path-2"></use>
                </g>
            </g>
        </g>
    </g>
</svg>