<?xml version="1.0" encoding="UTF-8"?>
<svg width="8px" height="5px" viewBox="0 0 8 5" version="1.1" xmlns="http://www.w3.org/2000/svg" xmlns:xlink="http://www.w3.org/1999/xlink">
    <!-- Generator: Sketch 56.1 (81669) - https://sketch.com -->
    <title>triangle</title>
    <desc>Created with Sketch.</desc>
    <g id="Page-1" stroke="none" stroke-width="1" fill="none" fill-rule="evenodd">
        <g id="register-2-step" transform="translate(-44.000000, -342.000000)" fill="#9B9B9B" fill-rule="nonzero">
            <g id="triangle" transform="translate(44.000000, 342.000000)">
                <path d="M7.83440273,0.174116041 C7.73572696,0.0753583618 7.61875768,0.0260204778 7.4836041,0.0260204778 L0.498948805,0.0260204778 C0.363740614,0.0260204778 0.246853242,0.0753583618 0.148095563,0.174116041 C0.049337884,0.272982935 0,0.389870307 0,0.524996587 C0,0.660095563 0.049337884,0.776982935 0.148095563,0.875767918 L3.64043686,4.36810922 C3.73930375,4.46686689 3.85619113,4.51631399 3.9912901,4.51631399 C4.12638908,4.51631399 4.24338567,4.46686689 4.34206143,4.36810922 L7.83440273,0.875740614 C7.93305119,0.776982935 7.9825802,0.660095563 7.9825802,0.524969283 C7.9825802,0.389870307 7.93305119,0.272982935 7.83440273,0.174116041 Z" id="Path"></path>
            </g>
        </g>
    </g>
</svg>